Coordinates
version=1
nRows=13
nColumns=22
inDegrees=yes

Units are S.I. units (second, meters, Newtons, ...)
If the header above contains a line with 'inDegrees', this indicates whether rotational values are in degrees (yes) or radians (no).

endheader
time	pelvis_tilt	pelvis_list	pelvis_rotation	pelvis_tx	pelvis_ty	pelvis_tz	hip_flexion_r	hip_adduction_r	hip_rotation_r	knee_angle_r	ankle_angle_r	subtalar_angle_r	hip_flexion_l	hip_adduction_l	hip_rotation_l	knee_angle_l	ankle_angle_l	subtalar_angle_l	lumbar_extension	lumbar_bending	lumbar_rotation
      2.36000000	     -6.88837249	     -4.32609053	     -9.48594005	      0.27841879	      0.91953991	     -0.19527057	      3.71815051	      6.17702880	      5.96329425	    -25.73046144	     19.86889577	     -2.09646126	     36.01874765	    -11.36957750	     -3.30943450	    -24.29244710	     -8.36642615	      1.55549106	     -9.62164640	      2.11654814	      9.91954533
      2.37000000	     -6.76121799	     -4.22010663	     -9.16035392	      0.26900881	      0.91971025	     -0.19389362	      4.15101928	      6.25580350	      5.47264489	    -25.66237434	     20.19844704	     -2.51502970	     36.01168310	    -11.19522817	     -2.76342571	    -23.95340701	     -8.33287177	      2.68696804	     -9.83669714	      2.01366412	      9.61027181
      2.38000000	     -6.57981189	     -4.10953438	     -8.76985096	      0.25989981	      0.92005255	     -0.19270057	      4.51343253	      6.31268505	      5.00373918	    -25.59134409	     20.45546876	     -2.92262466	     35.98936561	    -10.96267919	     -2.16832741	    -23.96225605	     -7.92368121	      3.84120545	    -10.07859856	      1.90591940	      9.24273371
      2.39000000	     -6.35147121	     -4.00393144	     -8.34833144	      0.25110363	      0.92056966	     -0.19161469	      4.80611368	      6.36021594	      4.55475417	    -25.51217813	     20.64776161	     -3.33615401	     35.95211983	    -10.71046524	     -1.60083902	    -24.34644127	     -7.12443359	      4.96587247	    -10.33834484	      1.79694577	      8.84762803
      2.40000000	     -6.08332926	     -3.90586137	     -7.89675198	      0.24260183	      0.92127140	     -0.19065343	      5.02678241	      6.40241122	      4.13872128	    -25.40491919	     20.74547872	     -3.72330898	     35.90921420	    -10.44209187	     -1.08822925	    -25.11880086	     -6.00182049	      5.98536344	    -10.61050290	      1.69491380	      8.44011430
      2.41000000	     -5.78148935	     -3.82856315	     -7.44516020	      0.23435722	      0.92214598	     -0.18974766	      5.19286688	      6.45434867	      3.73859667	    -25.29064343	     20.79200520	     -4.10779004	     35.86200801	    -10.20149051	     -0.70752847	    -26.27832874	     -4.62904638	      6.85091999	    -10.89573758	      1.61008940	      8.04798211
      2.42000000	     -5.46798308	     -3.77063316	     -7.00914767	      0.22634752	      0.92318213	     -0.18888126	      5.31965153	      6.51859870	      3.37817139	    -25.15157090	     20.75483549	     -4.45861415	     35.80733601	     -9.99852728	     -0.46630448	    -27.77311916	     -3.08430871	      7.51016886	    -11.17220179	      1.54337875	      7.68233330
      2.43000000	     -5.15863147	     -3.73859385	     -6.60089343	      0.21853691	      0.92435913	     -0.18801665	      5.42579720	      6.60421899	      3.05597716	    -24.98798473	     20.63587237	     -4.76617884	     35.74358521	     -9.85847673	     -0.38859922	    -29.55267504	     -1.47050782	      7.94491757	    -11.42541661	      1.50055915	      7.35110942
      2.44000000	     -4.86649766	     -3.73658380	     -6.23607202	      0.21087707	      0.92565962	     -0.18713503	      5.53684241	      6.71448481	      2.76245905	    -24.81577579	     20.42991673	     -5.01130691	     35.66177390	     -9.79736182	     -0.46281968	    -31.55465744	      0.11931820	      8.14016917	    -11.64880667	      1.48599833	      7.06992770
      2.45000000	     -4.60784375	     -3.76707717	     -5.92207094	      0.20334039	      0.92706003	     -0.18621599	      5.66108400	      6.85720917	      2.52739944	    -24.61679879	     20.15526636	     -5.11704641	     35.55747843	     -9.82323997	     -0.66573191	    -33.71525045	      1.59355897	      8.00506478	    -11.82745781	      1.50122724	      6.83393758
      2.46000000	     -4.39008149	     -3.79680222	     -5.66938188	      0.19588022	      0.92853504	     -0.18528105	      5.84189544	      6.98716474	      2.30227667	    -24.44221058	     19.80480995	     -5.20023612	     35.41268653	     -9.90658193	     -0.98627492	    -35.96451463	      2.95333836	      7.79402458	    -11.95632891	      1.51326302	      6.65044034
      2.47000000	     -4.22801948	     -3.85223930	     -5.46543344	      0.18849144	      0.93005474	     -0.18432047	      6.06587810	      7.13694895	      2.08253482	    -24.24125416	     19.36686957	     -5.26420139	     35.24503775	    -10.06357308	     -1.37291978	    -38.27119965	      4.13245819	      7.50514991	    -12.02100137	      1.54844806	      6.51906065
      2.48000000	     -4.10989919	     -3.90539541	     -5.31305843	      0.18112745	      0.93160258	     -0.18337221	      6.34927634	      7.27970325	      1.91234567	    -24.06489699	     18.87935871	     -5.26237443	     35.02155536	    -10.24455954	     -1.77918482	    -40.57844629	      5.15350750	      7.10948113	    -12.04226397	      1.58161300	      6.40175800
